PathFileType	4	(X/Y/Z)	c:/Users/goper/Files/vsCode/490R/osim_files/A06/A06_Slow_04.trc
DataRate	CameraRate	NumFrames	NumMarkers	Units                	OrigDataRate	OrigDataStartFrame	OrigNumFrames
120.00	120.00	9	36	mm	120.0	1043	1390
                Frame#	Time	LPSIS			LASIS			LTH1			LTH2			LTH3			LTH4			LLFE			LMFE			LSH1			LSH2			LSH3			LSH4			LLMAL			LMMAL			LCAL			LMTP5			LTOE			LMTP1			RPSIS			RASIS			RTH1			RTH2			RTH3			RTH4			RLFE			RMFE			RSH1			RSH2			RSH3			RSH4			RLMAL			RMMAL			RCAL			RMTP1			RTOE			RMTP5		
		X1	Y1	Z1	X2	Y2	Z2	X3	Y3	Z3	X4	Y4	Z4	X5	Y5	Z5	X6	Y6	Z6	X7	Y7	Z7	X8	Y8	Z8	X9	Y9	Z9	X10	Y10	Z10	X11	Y11	Z11	X12	Y12	Z12	X13	Y13	Z13	X14	Y14	Z14	X15	Y15	Z15	X16	Y16	Z16	X17	Y17	Z17	X18	Y18	Z18	X19	Y19	Z19	X20	Y20	Z20	X21	Y21	Z21	X22	Y22	Z22	X23	Y23	Z23	X24	Y24	Z24	X25	Y25	Z25	X26	Y26	Z26	X27	Y27	Z27	X28	Y28	Z28	X29	Y29	Z29	X30	Y30	Z30	X31	Y31	Z31	X32	Y32	Z32	X33	Y33	Z33	X34	Y34	Z34	X35	Y35	Z35	X36	Y36	Z36

1043	8.68333	-3190.78516	998.49493	327.45303	-3380.24854	952.16840	407.50552	-3410.74243	598.34094	447.95514	-3431.09546	563.62158	442.18741	-3469.91187	622.13367	438.43866	-3481.46606	582.06146	435.14093	-3478.17578	502.90237	426.93365	-3480.90918	499.36136	316.33185	-3395.56860	431.01187	440.42984	-3386.30640	386.45639	445.24100	-3453.21606	411.42175	433.66507	-3438.19434	372.60654	437.21936	-3300.34985	143.75172	398.67542	-3328.10205	150.40460	318.47028	-3239.31079	155.35823	345.42358	-3390.60645	57.56712	418.77417	-3437.48242	67.50687	368.27383	-3415.38770	66.69357	328.54614	-3199.52637	1010.16345	196.43921	-3379.12524	971.29987	148.97752	-3306.33765	591.09192	125.75410	-3302.89087	549.82269	124.98600	0.00000	0.00000	0.00000	-3247.90381	552.95770	118.64313	-3265.33789	438.33841	149.35179	-3267.41821	442.83401	237.64532	-3233.86108	284.68588	169.15085	-3232.11060	238.23602	173.67842	-3294.45435	278.63068	179.90149	-3284.31641	231.15787	178.72321	-3222.28467	103.41022	172.94679	-3236.29199	108.81276	254.61134	-3163.97021	85.11346	220.54686	-3366.21851	58.52919	249.11401	-3381.54663	69.44991	208.18031	-3353.99463	54.09054	160.94827
1044	8.69167	-3198.58862	998.33215	327.40979	-3387.83594	951.56793	407.51190	-3421.64819	598.05798	447.29535	-3443.60400	562.64001	441.77460	-3479.32202	624.12762	439.03879	-3491.39307	583.38110	435.58356	-3489.34033	504.29498	427.33722	-3492.26074	500.55606	317.06949	-3409.19336	428.89862	440.37915	-3402.89624	384.50253	445.49570	-3467.82104	412.16534	434.13290	-3454.43921	372.61792	437.60941	-3328.23633	137.53204	398.53165	-3356.35059	145.23492	318.47867	-3267.03491	145.88277	344.59695	-3422.33350	56.04039	419.78998	-3469.20654	68.14967	369.78238	-3447.61572	66.06075	329.81799	-3207.42627	1009.99091	196.43896	-3387.01758	970.87500	148.97833	-3311.69287	591.04352	125.85715	-3307.54199	549.50800	124.95193	0.00000	0.00000	0.00000	-3252.74072	553.20477	118.65442	-3268.99707	438.48010	149.29980	-3271.11792	442.91296	237.57874	-3236.06152	285.10184	169.06114	-3233.85278	238.62895	173.57849	-3296.52954	278.39645	179.92188	-3286.06763	231.15747	178.70810	-3221.96216	103.77753	172.27165	-3236.47168	108.92059	254.64575	-3162.78638	86.01643	220.25253	-3367.18384	59.25203	249.06317	-3381.66626	69.23703	208.23535	-3354.11865	54.01920	160.98952
1045	8.70000	-3206.52856	998.08142	327.44681	-3395.53857	950.99176	407.54907	-3431.05249	598.48767	447.74146	-3453.89453	563.58630	442.88364	-3488.55542	624.98120	439.55978	-3501.13794	584.38190	436.12054	-3500.05493	505.51266	427.66089	-3503.26660	501.53806	317.74252	-3422.75879	426.56586	440.38498	-3418.54126	380.88147	444.75827	-3481.93042	412.63348	434.61230	-3470.42065	372.50854	438.00360	-3356.20679	131.79562	398.45731	-3384.66553	140.52950	318.72394	-3293.76807	137.82886	343.21259	-3454.03564	55.24728	421.12738	-3500.80225	69.40189	371.53897	-3479.81104	66.06244	331.30994	-3215.14404	1009.95093	196.46535	-3394.79004	970.37421	149.03741	-3316.96582	590.90387	125.91660	-3311.66821	549.32593	124.64745	-3255.78320	596.61475	119.49235	-3257.51660	553.50879	118.55428	-3272.70459	438.62094	149.25317	-3274.90063	442.99661	237.58658	-3238.26733	285.56796	169.03262	-3235.63013	239.17766	173.56163	-3298.77319	278.26675	179.88353	-3287.76538	231.11244	178.68419	-3222.15308	103.93979	172.23965	-3236.86792	109.00142	254.62007	-3165.50928	85.19456	220.43124	-3366.40063	58.23576	249.16350	-3381.83008	69.11201	208.27405	-3354.32715	53.99721	161.01807
1046	8.70833	-3221.63086	995.32721	326.05951	-3403.12646	949.92371	407.30902	-3440.12622	598.67731	448.08301	-3463.68994	563.21765	444.13422	-3497.55566	625.61932	440.08032	-3510.43921	585.10767	436.64435	-3510.34473	506.36197	427.93771	-3513.86841	502.28680	318.42712	-3436.10278	423.97055	440.43353	-3431.90332	378.21567	444.65234	-3495.48999	413.87363	437.71594	-3486.12671	372.27048	438.42010	-3384.37695	126.47205	398.59546	-3413.24243	136.27042	319.10803	-3321.90894	129.33507	342.70804	-3485.64038	55.03579	422.59161	-3532.17822	71.23990	373.43674	-3511.80298	66.64143	332.97055	-3223.18433	1009.76917	196.57738	-3402.62646	969.80157	149.13614	-3322.28271	590.80786	126.07055	-3316.53711	549.05768	124.69865	-3261.34521	597.00262	119.53226	-3262.39771	553.71826	118.61685	-3276.51416	438.65817	149.27080	-3278.60327	443.09042	237.55551	-3240.36401	285.95456	168.91122	-3237.53052	239.55229	173.53928	-3301.71289	278.27682	179.54425	-3290.37671	231.03526	178.44681	-3222.35132	104.07597	172.23613	-3237.17065	109.07883	254.69223	-3165.60620	85.45001	220.42558	-3366.47974	58.06891	249.15601	-3381.97144	68.91364	208.29889	-3354.41553	53.93205	161.01329
1047	8.71667	-3229.20898	994.95697	326.28412	-3411.10376	949.32593	407.44760	-3448.94238	598.66412	448.36676	-3469.64307	564.53644	442.33966	-3506.23462	625.90717	440.61041	-3519.29004	585.53766	436.97269	-3520.08203	506.93167	428.18524	-3523.99805	502.71130	319.04144	-3449.43994	421.20642	440.52792	-3446.07715	375.88608	443.69199	-3509.17261	413.96155	435.79697	-3501.71069	372.02908	438.87302	-3412.61523	121.64623	398.87561	-3443.39844	132.24013	319.45734	-3352.03320	120.65765	342.37369	-3517.13940	55.48101	424.13422	-3563.29297	73.70526	375.39520	-3543.58667	67.90985	334.74478	-3230.96436	1009.59644	196.78221	-3410.55811	969.25903	149.28360	-3327.71436	590.76379	126.31541	-3321.28589	548.70618	124.74001	-3266.67236	597.16895	119.55658	-3267.26538	553.98621	118.56525	-3280.19409	438.70483	149.22736	-3282.54785	442.68597	237.85626	-3242.70874	286.36646	169.01970	-3238.74561	239.21919	173.14835	-3303.91943	278.16608	179.53925	-3291.63281	231.08969	178.49248	-3223.11108	104.02476	172.86534	-3237.46655	109.18043	254.67943	-3165.74780	85.63356	220.40834	-3367.23779	58.77084	247.50302	-3382.10400	68.69927	208.31747	-3354.56030	53.89716	161.05017
1048	8.72500	-3237.45703	994.58197	326.55521	-3419.35791	948.73950	407.68799	-3457.41968	598.36578	448.58817	-3474.71777	557.92395	442.11700	-3514.46338	625.85034	440.95724	-3527.76099	585.49451	437.43277	-3529.48218	507.26813	428.41354	-3533.80615	502.93658	319.62332	-3462.52319	418.22888	440.71338	-3461.52441	373.00003	443.83389	-3522.42944	414.14444	436.17767	-3517.11255	371.78821	439.28787	-3441.10083	117.36965	399.40909	-3469.66113	129.06644	321.30933	-3381.06836	113.27158	342.36069	-3548.50342	56.51738	425.72018	-3594.10962	76.76759	377.30713	-3575.06250	69.85852	336.47195	-3239.05127	1009.39636	197.06276	-3418.48169	968.61267	149.51164	-3333.20312	590.77802	126.62877	-3326.21704	548.40521	124.82758	-3271.89819	597.28955	119.60286	-3272.12793	554.03021	118.61139	-3283.97974	438.78787	149.24557	-3286.14038	443.11896	237.64908	-3244.94849	286.64719	168.91971	-3240.71948	239.71716	173.14107	-3306.11670	277.96780	179.56335	-3293.44189	231.03835	178.54800	-3222.84351	104.43554	172.20335	-3236.86865	109.07069	254.13823	-3165.85791	85.88908	220.39629	-3367.28784	58.50322	247.62291	-3382.25293	68.48368	208.35089	-3354.72485	53.89518	161.07780
1049	8.73333	-3245.05566	994.19373	326.94061	-3427.58740	947.97888	407.98618	-3465.49463	597.80249	448.75284	-3482.95630	557.54926	442.42548	-3522.45581	625.43951	441.45999	-3535.85669	585.17548	437.93433	-3538.30176	507.19650	428.50320	-3543.06836	502.77878	320.09772	-3475.54224	415.15808	440.83582	-3477.02197	370.17584	444.16879	-3535.45728	414.98587	434.41507	-3532.31152	371.65915	439.73825	-3469.67578	113.70670	400.10477	-3497.80981	126.72694	322.17056	-3410.06689	106.62073	342.73105	-3579.72314	58.22523	427.23901	-3624.59058	80.58912	379.11682	-3606.18311	72.53746	338.18170	-3246.86011	1009.22760	197.30664	-3426.46777	967.98157	149.79932	-3337.48218	590.54218	126.61008	-3330.96997	547.99152	124.91721	-3277.26538	597.41022	119.66431	-3277.07178	554.34674	118.65102	-3287.82666	438.84094	149.33034	-3289.96729	443.20938	237.62898	-3247.45874	287.09839	168.99203	-3242.47095	240.23633	173.13037	-3308.19409	277.74936	179.63620	-3295.22827	230.99788	178.58818	-3223.09204	104.62836	172.15793	-3237.06665	109.18021	254.10555	-3166.02100	86.13486	220.34334	-3367.42920	58.38713	247.65442	-3382.36816	68.29258	208.36829	-3354.86743	53.87796	161.08069
1050	8.74167	-3253.75342	993.49323	327.26251	-3435.88525	947.27264	408.26303	-3473.24438	596.87408	448.72372	-3496.13428	562.19641	443.52124	-3529.88599	624.55853	441.87238	-3540.72534	581.86981	434.98459	-3546.66968	506.78540	428.63019	-3551.90894	502.37970	320.51654	-3488.22070	411.97394	441.13895	-3494.77271	366.40680	446.52478	-3548.29956	415.11993	434.83755	-3547.22510	371.56683	440.16830	-3498.15894	110.72610	401.02869	-3525.98291	125.13200	323.10550	-3439.10229	101.01690	343.20197	-3610.75122	60.79779	428.67355	-3654.61230	85.16129	380.70972	-3636.83789	76.08764	339.69925	-3254.99902	1008.82587	197.74559	-3434.41504	967.32452	149.99406	-3344.00952	590.79742	127.27610	-3335.87598	547.63983	125.01495	-3282.63501	597.53247	119.74673	-3281.96338	554.55182	118.74569	-3291.59570	438.86337	149.38716	-3293.86035	443.16910	237.71579	-3249.73901	287.48889	168.91635	-3244.38403	240.59964	173.15298	-3310.57227	277.67111	179.63399	-3297.02734	231.01434	178.61140	-3223.80371	104.56802	172.80812	-3237.29980	109.34042	254.07607	-3164.93506	86.74865	220.42241	-3367.59937	58.47717	247.47787	-3382.48755	68.14132	208.38469	-3354.98584	53.84689	161.06573
1051	8.75000	-3261.85669	992.80890	327.72458	-3444.31445	946.33972	408.63623	-3480.64746	595.64551	448.64014	-3503.95898	561.25781	444.21985	-3537.19141	623.47260	442.18338	-3548.39038	581.37659	434.85190	-3554.65747	506.05270	428.59967	-3560.41699	501.69077	320.78635	-3500.92480	408.77386	441.43204	-3508.81348	363.25977	447.97275	-3560.64746	415.14587	435.09912	-3561.88843	371.57349	440.64374	-3526.63916	108.40605	402.10733	-3553.91162	124.35765	324.06723	-3468.23828	95.38373	344.52682	-3641.53271	63.77412	429.62912	-3684.09570	89.60279	381.74408	-3666.81763	80.56356	340.95432	-3262.91675	1008.51617	198.20541	-3442.40625	966.66248	150.27306	-3349.39087	590.33960	127.42865	-3340.81104	547.28241	125.14309	-3288.02832	597.63068	119.86007	-3287.00757	554.50342	118.90950	-3295.40942	438.91864	149.44429	-3297.66968	443.18921	237.82947	-3252.26099	287.88599	169.01721	-3246.49707	241.13594	173.14729	-3312.83765	277.54352	179.73636	-3298.83984	230.99228	178.66173	-3223.56177	105.02344	172.11760	-3237.04761	109.16048	254.62546	-3165.08130	86.98352	220.38849	-3367.69214	58.35958	247.51230	-3384.02148	67.85030	208.79562	-3355.10034	53.82228	161.06587
